Coordinates
version=1
nRows=18
nColumns=22
inDegrees=yes

Units are S.I. units (second, meters, Newtons, ...)
If the header above contains a line with 'inDegrees', this indicates whether rotational values are in degrees (yes) or radians (no).

endheader
time	pelvis_tilt	pelvis_list	pelvis_rotation	pelvis_tx	pelvis_ty	pelvis_tz	hip_flexion_r	hip_adduction_r	hip_rotation_r	knee_angle_r	ankle_angle_r	subtalar_angle_r	hip_flexion_l	hip_adduction_l	hip_rotation_l	knee_angle_l	ankle_angle_l	subtalar_angle_l	lumbar_extension	lumbar_bending	lumbar_rotation
      1.40000000	      2.54404539	     -1.39807988	     -1.05079825	      0.58985670	      1.08410931	     -0.32422938	     -2.80810702	      2.29625393	     -3.34905756	    -10.81503754	     10.70051642	     -4.52638296	     -2.30732185	     -1.72127468	     -4.41892449	    -12.78720261	     13.48601261	     -0.22820512	     -3.51195056	     -1.04586040	     -4.83809574
      1.41000000	      2.53807648	     -1.39956834	     -1.04510228	      0.58984975	      1.08411481	     -0.32403198	     -2.81871817	      2.31039417	     -3.35518370	    -10.78302339	     10.69061716	     -4.53652302	     -2.30001684	     -1.73608399	     -4.42820879	    -12.78579795	     13.47863386	     -0.21846518	     -3.50151748	     -1.03980881	     -4.86175892
      1.42000000	      2.53786207	     -1.39412083	     -1.05023593	      0.58980551	      1.08412222	     -0.32382793	     -2.81825123	      2.31491510	     -3.35723561	    -10.77903950	     10.68969495	     -4.53749688	     -2.29862224	     -1.74071380	     -4.42717298	    -12.78472828	     13.47812044	     -0.21742193	     -3.50363979	     -1.04212033	     -4.86403617
      1.43000000	      2.53788461	     -1.38851998	     -1.05581730	      0.58977313	      1.08413152	     -0.32362523	     -2.81970307	      2.31931083	     -3.36018364	    -10.77272854	     10.68852408	     -4.53891511	     -2.29959030	     -1.74520446	     -4.42842909	    -12.78171846	     13.47651449	     -0.21569594	     -3.50193895	     -1.04511079	     -4.86704854
      1.44000000	      2.53777887	     -1.38029611	     -1.06027320	      0.58979605	      1.08414488	     -0.32344486	     -2.83380056	      2.32005662	     -3.36733602	    -10.74709911	     10.68101108	     -4.54762616	     -2.31409775	     -1.74619176	     -4.44879807	    -12.75487416	     13.46384382	     -0.20392618	     -3.48711259	     -1.04612220	     -4.87219885
      1.45000000	      2.54055853	     -1.37410143	     -1.06579550	      0.58976078	      1.08415451	     -0.32324699	     -2.83528072	      2.32342180	     -3.36772592	    -10.74593499	     10.67971735	     -4.54909090	     -2.31773377	     -1.75054113	     -4.44971497	    -12.75312011	     13.46121106	     -0.20162207	     -3.48601104	     -1.05024332	     -4.87296500
      1.46000000	      2.59963573	     -1.35120071	     -1.10435805	      0.58977880	      1.08425426	     -0.32301570	     -2.90774213	      2.30697403	     -3.32101182	    -10.72701648	     10.67145500	     -4.60825441	     -2.41406075	     -1.73393914	     -4.50536813	    -12.69815685	     13.42362052	     -0.10555916	     -3.54064877	     -1.07284770	     -4.83414935
      1.47000000	      2.60319948	     -1.34541143	     -1.10445753	      0.58973938	      1.08426273	     -0.32282422	     -2.90830045	      2.31171327	     -3.32386958	    -10.72874333	     10.67016180	     -4.60913670	     -2.41783338	     -1.74055716	     -4.50929476	    -12.69524661	     13.42050133	     -0.10293317	     -3.53511298	     -1.07645151	     -4.83467374
      1.48000000	      2.60922472	     -1.33932000	     -1.11333823	      0.58970860	      1.08428194	     -0.32262821	     -2.90550397	      2.31391651	     -3.33627460	    -10.74075795	     10.66208918	     -4.61970242	     -2.43188966	     -1.74881222	     -4.54546805	    -12.67773565	     13.38460823	     -0.06842465	     -3.53008293	     -1.07521298	     -4.83439467
      1.49000000	      2.61293140	     -1.32329702	     -1.12241246	      0.58963007	      1.08429915	     -0.32240773	     -2.89663113	      2.30904325	     -3.32501813	    -10.75422716	     10.66363015	     -4.66009295	     -2.43067962	     -1.75095687	     -4.59014300	    -12.67814473	     13.35103997	      0.06435103	     -3.52737799	     -1.09174024	     -4.81480934
      1.50000000	      2.60571048	     -1.31885397	     -1.11145385	      0.58950137	      1.08429608	     -0.32220255	     -2.86531733	      2.31886594	     -3.33522204	    -10.78489146	     10.66257705	     -4.69463927	     -2.39653365	     -1.76895355	     -4.60870036	    -12.71107493	     13.33622308	      0.16841743	     -3.51885216	     -1.09167054	     -4.82776343
      1.51000000	      2.58566463	     -1.30659615	     -1.09973360	      0.58934390	      1.08427988	     -0.32199153	     -2.81104099	      2.32119777	     -3.34192204	    -10.82920406	     10.66167651	     -4.73564791	     -2.34151966	     -1.78062910	     -4.62584835	    -12.75230796	     13.30949941	      0.27941449	     -3.49594653	     -1.09915122	     -4.83919142
      1.52000000	      2.54503026	     -1.29477712	     -1.08141294	      0.58912729	      1.08423194	     -0.32177874	     -2.71954776	      2.32686949	     -3.34272605	    -10.89591229	     10.66119159	     -4.80164579	     -2.24743078	     -1.79432685	     -4.62200650	    -12.81900125	     13.31582929	      0.42528102	     -3.45622044	     -1.10319006	     -4.85657417
      1.53000000	      2.54518345	     -1.28585392	     -1.06295797	      0.58888704	      1.08425003	     -0.32154132	     -2.66732154	      2.33671644	     -3.35651916	    -10.96681872	     10.66207162	     -4.83381675	     -2.18648714	     -1.81378905	     -4.64446673	    -12.89919816	     13.26809555	      0.48271708	     -3.47031713	     -1.10462730	     -4.87870681
      1.54000000	      2.50927594	     -1.27019018	     -1.03769086	      0.58857055	      1.08421155	     -0.32129654	     -2.54926491	      2.34146499	     -3.38088816	    -11.08022879	     10.67081136	     -4.90986958	     -2.05997270	     -1.82877974	     -4.65089403	    -13.02049930	     13.24809798	      0.59736777	     -3.45035306	     -1.11285508	     -4.91030291
      1.55000000	      2.44751363	     -1.24970101	     -1.01655360	      0.58819865	      1.08413863	     -0.32103075	     -2.38995935	      2.34515854	     -3.36392800	    -11.21302652	     10.66852682	     -5.01880568	     -1.89524921	     -1.83645896	     -4.61759853	    -13.15777629	     13.25830759	      0.73509546	     -3.40706636	     -1.12385362	     -4.93143362
      1.56000000	      2.46863296	     -1.23140758	     -1.00179092	      0.58781132	      1.08418525	     -0.32073423	     -2.31212656	      2.34993136	     -3.36601726	    -11.35416952	     10.66954730	     -5.06466999	     -1.80814420	     -1.84798609	     -4.63266462	    -13.31246795	     13.22125282	      0.77725044	     -3.46639044	     -1.13249800	     -4.96255257
      1.57000000	      2.39983437	     -1.20022176	     -0.97845079	      0.58730796	      1.08409259	     -0.32041693	     -2.10084695	      2.34747906	     -3.35126967	    -11.55384466	     10.68303942	     -5.21528656	     -1.59409671	     -1.84703913	     -4.59125195	    -13.51119296	     13.23693183	      0.89738324	     -3.43452196	     -1.15775747	     -4.99028078
